<svg xmlns="http://www.w3.org/2000/svg" enable-background="new 0 0 512 512" viewBox="0 0 512 512" id="space-shuttle">
  <linearGradient id="a" x1="101.607" x2="410.498" y1="438.129" y2="129.237" gradientUnits="userSpaceOnUse">
    <stop offset="0" stop-color="#0095da"></stop>
    <stop offset=".5" stop-color="#00aeee"></stop>
    <stop offset="1" stop-color="#2bc4f3"></stop>
  </linearGradient>
  <path fill="url(#a)" d="M404.554,438.441c-4.658-17.514-17.013-31.505-29.244-37.64c-14.434-8.306-48.233-13.242-60.491-55.264l-14.011-48.648v113.808c12.01,0.89,21.573,10.842,21.573,23.129v14.844h73.889C401.809,448.671,405.962,443.547,404.554,438.441z M303.755,475.08h-9.396l-9.952,36.639h29.3L303.755,475.08z M222.305,171.628v239.626c10.174,2.502,17.735,11.62,17.735,22.573v14.844h35.693v-14.844c0-9.507,5.782-17.68,13.955-21.294V171.628H222.305z M273.9,244.906c-6.671,6.669-16.106,8.809-24.686,6.505c-18.746-4.9-24.726-28.703-11.12-42.31c6.45-6.505,15.734-8.951,24.686-6.561C281.505,207.438,287.589,231.333,273.9,244.906z M259.945,213.271c-5.095-1.327-10.346,0.005-14.011,3.67c-7.509,7.506-4.358,20.997,6.115,23.74c5.116,1.334,10.342,0,14.011-3.67C273.731,229.34,270.258,216.095,259.945,213.271z M221.47,475.08h-9.451l-9.897,36.639h29.244L221.47,475.08z M197.175,345.538c-12.015,41.188-48.235,48.375-60.657,55.319c-11.982,6.003-24.451,20.066-29.077,37.584c-1.367,4.868,2.596,10.23,8.34,10.23h77.67v-14.844c0-10.953,7.561-20.071,17.736-22.573V296.89L197.175,345.538z M162.315,77.057c-2.093-2.792-6.144-2.859-8.451,0.056c-11.731,15.957-18.181,29.356-18.181,37.64v18.236h44.701v-18.236C180.384,106.19,173.99,92.791,162.315,77.057z M135.683,173.351v55.32h44.701v-55.32H135.683z M135.683,144.107v18.125h44.701v-18.125H135.683z M135.683,239.791v18.125h44.701v-18.125H135.683z M135.683,269.035v119.701c18.431-7.89,32.734-12.294,44.701-32.246v-87.455H135.683z M216.801,421.651h-0.111c-6.672,0.056-12.121,5.449-12.121,12.176v30.133h24.352v-30.133C228.921,427.1,223.528,421.651,216.801,421.651z M263.28,113.528c-3.629-4.989-11.537-4.324-14.566,0c-9.018,12.108-22.173,32.232-25.687,46.98h65.884C285.887,146.284,271.946,125.082,263.28,113.528z M299.085,421.651c-6.728,0-12.232,5.449-12.232,12.176v30.133h24.408v-30.133C311.261,427.1,305.757,421.651,299.085,421.651z M274.455,8.838c-9.529-11.251-27.075-11.549-37.028-0.055c-29.411,34.693-45.645,64.993-45.645,85.342v229.952l19.404-67.385v-90.624c0-17.977,21.622-51.444,30.189-60.88c3.976-4.231,8.626-6.449,14.622-6.449c7.616,0,12.408,3.429,16.901,9.062c10.153,14.148,27.854,40.291,27.854,57.766c0.181,0.543,0.056,4.12,0.056,91.124l19.459,67.608V94.125C320.267,74.165,303.978,43.865,274.455,8.838z M358.241,77.057c-2.057-2.743-6.226-2.893-8.395,0c-11.62,15.678-18.236,29.411-18.236,37.695v18.236h44.756v-18.236C376.366,106.19,369.916,92.846,358.241,77.057z M331.61,239.791v18.125h44.701v-18.125H331.61z M331.61,144.107v18.125h44.701v-18.125H331.61z M331.61,173.351v55.32h44.756v-55.32H331.61z M331.61,269.035v87.455c12.383,22.275,35.186,27.521,44.756,32.302V269.035H331.61z"></path>
</svg>
